<svg width="123" height="28" viewBox="0 0 123 28" fill="none" xmlns="http://www.w3.org/2000/svg">
<rect width="123" height="28" rx="2" fill="#313131"/>
<path d="M35.2766 18H34.0776V9.937H35.2766V18ZM44.063 16.141V9.937H45.207V18H44.03L39.542 11.796V18H38.387V9.937H39.597L44.063 16.141ZM51.3329 18.132C50.3502 18.132 49.5729 17.9633 49.0009 17.626C48.4362 17.2813 48.0292 16.867 47.7799 16.383L48.7809 15.624C49.2429 16.5627 50.1082 17.032 51.3769 17.032C51.8829 17.032 52.3119 16.9403 52.6639 16.757C53.0232 16.5737 53.2029 16.2803 53.2029 15.877C53.2029 15.5763 53.1002 15.3417 52.8949 15.173C52.6969 15.0043 52.3889 14.854 51.9709 14.722C51.5895 14.6047 51.3512 14.535 51.2559 14.513C50.6252 14.3297 50.1705 14.1867 49.8919 14.084C49.1879 13.82 48.7222 13.5157 48.4949 13.171C48.2675 12.8263 48.1539 12.467 48.1539 12.093C48.1539 11.785 48.2492 11.455 48.4399 11.103C48.6379 10.7437 48.9459 10.4393 49.3639 10.19C49.7892 9.93333 50.3209 9.805 50.9589 9.805C51.6702 9.805 52.2642 9.90033 52.7409 10.091C53.2175 10.2817 53.6795 10.6043 54.1269 11.059L53.0159 11.796C52.5685 11.2167 51.9159 10.927 51.0579 10.927C50.6179 10.927 50.2769 10.993 50.0349 11.125C49.8002 11.257 49.6425 11.4037 49.5619 11.565C49.4885 11.7263 49.4519 11.8693 49.4519 11.994C49.4519 12.258 49.5545 12.4707 49.7599 12.632C49.9652 12.7933 50.2695 12.94 50.6729 13.072C50.7095 13.0867 50.9919 13.171 51.5199 13.325C51.8499 13.413 52.1909 13.512 52.5429 13.622C53.3129 13.8787 53.8262 14.205 54.0829 14.601C54.3469 14.997 54.4789 15.3783 54.4789 15.745C54.4789 16.141 54.3835 16.5187 54.1929 16.878C54.0095 17.2373 53.6832 17.538 53.2139 17.78C52.7519 18.0147 52.1249 18.132 51.3329 18.132ZM63.304 9.937V10.993H60.422V18H59.223V10.993H56.341V9.937H63.304ZM72.4178 18H71.0098L70.1518 15.602H66.9618L66.1038 18H64.6958L67.7868 9.937H69.3268L72.4178 18ZM68.5568 11.136L67.3468 14.535H69.7668L68.5568 11.136ZM81.8464 18H80.7464V16.966C80.1451 17.7433 79.2761 18.132 78.1394 18.132C77.3034 18.132 76.5848 17.9523 75.9834 17.593C75.3821 17.2337 74.9238 16.7423 74.6084 16.119C74.3004 15.4883 74.1464 14.7733 74.1464 13.974C74.1464 13.1747 74.3004 12.4597 74.6084 11.829C74.9238 11.1983 75.3821 10.7033 75.9834 10.344C76.5848 9.98467 77.3034 9.805 78.1394 9.805C78.9754 9.805 79.6941 9.98467 80.2954 10.344C80.8968 10.7033 81.3551 11.202 81.6704 11.84L80.3614 12.214C79.8994 11.334 79.1588 10.894 78.1394 10.894C77.5308 10.894 77.0284 11.037 76.6324 11.323C76.2364 11.609 75.9468 11.9867 75.7634 12.456C75.5801 12.918 75.4884 13.424 75.4884 13.974C75.4884 14.524 75.5801 15.03 75.7634 15.492C75.9468 15.954 76.2364 16.328 76.6324 16.614C77.0284 16.9 77.5308 17.043 78.1394 17.043C78.8288 17.043 79.3971 16.845 79.8444 16.449C80.2991 16.0457 80.5998 15.5287 80.7464 14.898V14.733H77.9854V13.677H81.8464V18ZM91.6598 18H90.2298L88.0188 14.634H87.6008H85.9068V18H84.7078V9.937H87.6008H88.8108C89.5588 9.937 90.1711 10.1277 90.6478 10.509C91.1245 10.883 91.3628 11.4733 91.3628 12.28C91.3628 12.9767 91.1795 13.512 90.8128 13.886C90.4461 14.2527 89.9585 14.4837 89.3498 14.579L91.6598 18ZM85.9068 10.993V13.567H88.1288C88.5395 13.567 88.8805 13.545 89.1518 13.501C89.4305 13.457 89.6651 13.3397 89.8558 13.149C90.0538 12.9583 90.1528 12.6687 90.1528 12.28C90.1528 11.8913 90.0538 11.6017 89.8558 11.411C89.6651 11.2203 89.4305 11.103 89.1518 11.059C88.8805 11.015 88.5395 10.993 88.1288 10.993H85.9068ZM100.747 18H99.3391L98.4811 15.602H95.2911L94.4331 18H93.0251L96.1161 9.937H97.6561L100.747 18ZM96.8861 11.136L95.6761 14.535H98.0961L96.8861 11.136ZM111.111 9.937V18H109.967V11.884L107.415 18H106.513L103.95 11.884V18H102.806V9.937H104.379L106.964 16.163L109.549 9.937H111.111Z" fill="white"/>
<g clip-path="url(#clip0_2049_2)">
<path d="M12.9796 5.05951C12.0752 5.10215 11.4576 5.24651 10.9177 5.45859C10.3589 5.6764 9.88529 5.96859 9.41403 6.44154C8.94285 6.9145 8.65257 7.38844 8.43639 7.94817C8.22715 8.48919 8.08534 9.10735 8.04539 10.0122C8.00544 10.9171 7.99659 11.2081 8.00105 13.5164C8.00544 15.8246 8.01564 16.1139 8.05949 17.0207C8.1027 17.9249 8.24649 18.5424 8.45863 19.0825C8.6768 19.6413 8.96863 20.1147 9.4418 20.5861C9.9149 21.0575 10.3885 21.3471 10.9495 21.5636C11.4901 21.7726 12.1084 21.915 13.0131 21.9546C13.9179 21.9943 14.2091 22.0035 16.5167 21.999C18.8243 21.9946 19.1149 21.9844 20.0214 21.9414C20.9281 21.8984 21.5422 21.7535 22.0825 21.5424C22.6413 21.3238 23.1151 21.0324 23.5862 20.5591C24.0572 20.0858 24.3473 19.6115 24.5633 19.0515C24.7728 18.5109 24.9151 17.8927 24.9543 16.9886C24.994 16.0812 25.0033 15.7916 24.9989 13.4837C24.9945 11.1758 24.984 10.8864 24.9411 9.97995C24.8981 9.0735 24.7541 8.45795 24.5421 7.9175C24.3236 7.35869 24.0321 6.8856 23.5592 6.41385C23.0862 5.9421 22.6115 5.65225 22.0518 5.4367C21.5107 5.22739 20.8929 5.0848 19.9881 5.0457C19.0833 5.0066 18.7922 4.99647 16.4837 5.001C14.1752 5.0054 13.8862 5.01531 12.9796 5.05951ZM13.0789 20.4255C12.2502 20.3894 11.8002 20.2517 11.5003 20.1365C11.1032 19.9835 10.8203 19.7985 10.5214 19.5025C10.2225 19.2066 10.039 18.9227 9.88394 18.5264C9.76749 18.2265 9.62724 17.777 9.5885 16.9482C9.54635 16.0526 9.5375 15.7836 9.53254 13.5142C9.52758 11.245 9.53629 10.9763 9.57553 10.0802C9.61095 9.25221 9.7495 8.80171 9.86453 8.50194C10.0175 8.10435 10.2018 7.82194 10.4985 7.52331C10.7951 7.2246 11.0782 7.04065 11.4748 6.8856C11.7744 6.76865 12.2238 6.6296 13.0522 6.59015C13.9486 6.54765 14.2172 6.53915 16.4862 6.53419C18.7553 6.52923 19.0246 6.53773 19.9213 6.57726C20.7493 6.61324 21.2001 6.75045 21.4995 6.86626C21.8967 7.01926 22.1795 7.203 22.4781 7.50022C22.7768 7.79729 22.9609 8.07935 23.116 8.4768C23.2331 8.7755 23.3722 9.2248 23.4113 10.0538C23.4539 10.9502 23.4636 11.219 23.4677 13.4878C23.4718 15.7566 23.4638 16.026 23.4244 16.9218C23.3883 17.7505 23.2509 18.2007 23.1354 18.5009C22.9824 18.8979 22.7981 19.1809 22.5012 19.4794C22.2044 19.778 21.9217 19.9619 21.5249 20.1169C21.2257 20.2337 20.7757 20.3731 19.948 20.4126C19.0515 20.4547 18.7829 20.4636 16.5131 20.4685C14.2432 20.4735 13.9753 20.4643 13.0789 20.4255ZM20.0084 8.95705C20.0087 9.1588 20.0689 9.35592 20.1812 9.52348C20.2936 9.69104 20.4532 9.82151 20.6397 9.89839C20.8262 9.97527 21.0314 9.9951 21.2292 9.95538C21.427 9.91566 21.6086 9.81817 21.751 9.67524C21.8934 9.53231 21.9902 9.35036 22.0291 9.15241C22.0681 8.95445 22.0475 8.74939 21.9699 8.56314C21.8924 8.3769 21.7613 8.21784 21.5933 8.1061C21.4253 7.99435 21.228 7.93493 21.0262 7.93535C20.7558 7.93591 20.4966 8.04385 20.3058 8.23545C20.1149 8.42704 20.0079 8.6866 20.0084 8.95705ZM12.1356 13.5085C12.1403 15.9191 14.0981 17.8688 16.5081 17.8643C18.9183 17.8597 20.8693 15.9021 20.8648 13.4915C20.8602 11.0809 18.902 9.13066 16.4916 9.1354C14.0811 9.14015 12.1311 11.0982 12.1356 13.5085ZM13.6667 13.5055C13.6655 12.9451 13.8306 12.397 14.141 11.9304C14.4515 11.4639 14.8932 11.0998 15.4105 10.8844C15.9278 10.6689 16.4974 10.6117 17.0472 10.7199C17.597 10.8281 18.1024 11.097 18.4995 11.4924C18.8965 11.8879 19.1673 12.3922 19.2778 12.9416C19.3882 13.491 19.3332 14.0608 19.1198 14.5789C18.9064 15.0971 18.5441 15.5403 18.0788 15.8526C17.6135 16.1648 17.066 16.3321 16.5057 16.3332C16.1336 16.334 15.765 16.2615 15.4209 16.1198C15.0768 15.9781 14.764 15.77 14.5004 15.5074C14.2368 15.2448 14.0275 14.9329 13.8844 14.5894C13.7413 14.2459 13.6674 13.8776 13.6667 13.5055Z" fill="white"/>
</g>
<defs>
<clipPath id="clip0_2049_2">
<rect width="17" height="17" fill="white" transform="translate(8 5)"/>
</clipPath>
</defs>
</svg>
