<svg width="123" height="28" viewBox="0 0 123 28" fill="none" xmlns="http://www.w3.org/2000/svg">
<rect width="123" height="28" rx="2" fill="#313131"/>
<path d="M40.8381 10.204V17.836H46.7541V19H39.5301V10.204H40.8381ZM50.7825 19H49.4745V10.204H50.7825V19ZM60.3676 16.972V10.204H61.6156V19H60.3316L55.4356 12.232V19H54.1756V10.204H55.4956L60.3676 16.972ZM72.4744 19H70.9384L67.9744 14.908L66.3544 16.624V19H65.0464V10.204H66.3544V14.908L70.7584 10.204H72.4024L68.8504 13.984L72.4744 19ZM81.6163 10.204V11.356H76.0483V13.864H79.5523V15.016H76.0483V17.848H81.6163V19H74.7403V10.204H81.6163ZM88.4541 10.204C89.8621 10.204 90.8541 10.636 91.4301 11.5C92.0061 12.364 92.2941 13.4 92.2941 14.608C92.2941 15.816 92.0061 16.852 91.4301 17.716C90.8541 18.572 89.8621 19 88.4541 19H84.5301V10.204H88.4541ZM88.0941 17.848C88.6141 17.848 89.0741 17.772 89.4741 17.62C89.8741 17.46 90.2061 17.144 90.4701 16.672C90.7421 16.192 90.8781 15.504 90.8781 14.608C90.8781 13.712 90.7421 13.024 90.4701 12.544C90.2061 12.064 89.8741 11.748 89.4741 11.596C89.0741 11.436 88.6141 11.356 88.0941 11.356H85.8381V17.848H88.0941ZM96.638 19H95.33V10.204H96.638V19ZM106.223 16.972V10.204H107.471V19H106.187L101.291 12.232V19H100.031V10.204H101.351L106.223 16.972Z" fill="white"/>
<path d="M24.65 5H9.35C8.99196 5 8.64858 5.14223 8.39541 5.39541C8.14223 5.64858 8 5.99196 8 6.35V21.65C8 22.008 8.14223 22.3514 8.39541 22.6046C8.64858 22.8578 8.99196 23 9.35 23H24.65C25.008 23 25.3514 22.8578 25.6046 22.6046C25.8578 22.3514 26 22.008 26 21.65V6.35C26 5.99196 25.8578 5.64858 25.6046 5.39541C25.3514 5.14223 25.008 5 24.65 5ZM13.4 20.3H10.7V12.2H13.4V20.3ZM12.05 10.625C11.7406 10.6162 11.4406 10.5163 11.1876 10.338C10.9346 10.1596 10.7397 9.91066 10.6274 9.6222C10.515 9.33374 10.4902 9.01857 10.5559 8.71607C10.6217 8.41358 10.7751 8.13716 10.9971 7.92138C11.2191 7.70559 11.4997 7.55999 11.8039 7.50278C12.1081 7.44556 12.4225 7.47927 12.7077 7.59969C12.9928 7.7201 13.2362 7.92189 13.4074 8.17983C13.5785 8.43778 13.6699 8.74044 13.67 9.05C13.6629 9.47332 13.4885 9.8766 13.1849 10.1717C12.8814 10.4669 12.4733 10.6298 12.05 10.625ZM23.3 20.3H20.6V16.034C20.6 14.756 20.06 14.297 19.358 14.297C19.1522 14.3107 18.9511 14.3649 18.7663 14.4566C18.5815 14.5482 18.4166 14.6755 18.2811 14.831C18.1457 14.9866 18.0422 15.1674 17.9768 15.363C17.9114 15.5586 17.8853 15.7652 17.9 15.971C17.8955 16.0129 17.8955 16.0551 17.9 16.097V20.3H15.2V12.2H17.81V13.37C18.0733 12.9695 18.435 12.6433 18.8605 12.4227C19.286 12.2021 19.761 12.0944 20.24 12.11C21.635 12.11 23.264 12.884 23.264 15.404L23.3 20.3Z" fill="white"/>
</svg>
